<?xml version="1.0" encoding="UTF-8" standalone="no"?>
<svg
   xmlns:dc="http://purl.org/dc/elements/1.1/"
   xmlns:cc="http://creativecommons.org/ns#"
   xmlns:rdf="http://www.w3.org/1999/02/22-rdf-syntax-ns#"
   xmlns:svg="http://www.w3.org/2000/svg"
   xmlns="http://www.w3.org/2000/svg"
   viewBox="0 0 518 496"
   height="496"
   width="518"
   xml:space="preserve"
   version="1.1"
   id="svg3355"><metadata
     id="metadata3361"><rdf:RDF><cc:Work
         rdf:about=""><dc:format>image/svg+xml</dc:format><dc:type
           rdf:resource="http://purl.org/dc/dcmitype/StillImage" /><dc:title></dc:title></cc:Work></rdf:RDF></metadata><defs
     id="defs3359"><clipPath
       id="clipPath3369"
       clipPathUnits="userSpaceOnUse"><path
         id="path3371"
         d="M 0,980 1400,980 1400,0 0,0 0,980 Z" /></clipPath></defs><g
     transform="matrix(1.25,0,0,-1.25,0,496)"
     id="g3363"><g
       transform="translate(742.8614,769.8141)"
       id="g3401"><path
         id="path3403"
         style="fill:#171918;fill-opacity:1;fill-rule:nonzero;stroke:none"
         d="m 0,0 c -36.732,0 -66.509,-29.777 -66.509,-66.509 0,-36.732 29.777,-66.509 66.509,-66.509 36.732,0 66.509,29.777 66.509,66.509 C 66.509,-29.777 36.732,0 0,0" /></g><g
       transform="translate(813.4442,710.6951)"
       id="g3405"><path
         id="path3407"
         style="fill:#51a0d8;fill-opacity:1;fill-rule:nonzero;stroke:none"
         d="M 0,0 C -3.696,35.72 -33.886,63.575 -70.583,63.575 -107.28,63.575 -137.47,35.72 -141.166,0 L 0,0 Z" /></g><g
       transform="translate(672.2786,695.9154)"
       id="g3409"><path
         id="path3411"
         style="fill:#e9e8ea;fill-opacity:1;fill-rule:nonzero;stroke:none"
         d="m 0,0 c 3.696,-35.72 33.886,-63.575 70.583,-63.575 36.697,0 66.887,27.855 70.583,63.575 L 0,0 Z" /></g><g
       transform="translate(742.8614,725.6659)"
       id="g3413"><path
         id="path3415"
         style="fill:#171918;fill-opacity:1;fill-rule:nonzero;stroke:none"
         d="m 0,0 c -12.349,0 -22.361,-10.011 -22.361,-22.361 0,-12.349 10.012,-22.36 22.361,-22.36 12.349,0 22.361,10.011 22.361,22.36 C 22.361,-10.011 12.349,0 0,0" /></g><g
       transform="translate(742.8614,720.7758)"
       id="g3417"><path
         id="path3419"
         style="fill:#f7f8f8;fill-opacity:1;fill-rule:nonzero;stroke:none"
         d="m 0,0 c -9.649,0 -17.47,-7.822 -17.47,-17.471 0,-9.648 7.821,-17.47 17.47,-17.47 9.649,0 17.471,7.822 17.471,17.47 C 17.471,-7.822 9.649,0 0,0" /></g><g
       transform="translate(742.8614,715.0908)"
       id="g3421"><path
         id="path3423"
         style="fill:#bbb6b6;fill-opacity:1;fill-rule:nonzero;stroke:none"
         d="m 0,0 c -6.509,0 -11.786,-5.277 -11.786,-11.786 0,-6.508 5.277,-11.785 11.786,-11.785 6.509,0 11.786,5.277 11.786,11.785 C 11.786,-5.277 6.509,0 0,0" /></g><g
       transform="translate(742.8614,714.2214)"
       id="g3425"><path
         id="path3427"
         style="fill:#f7f8f8;fill-opacity:1;fill-rule:nonzero;stroke:none"
         d="m 0,0 c -6.029,0 -10.916,-4.887 -10.916,-10.916 0,-6.029 4.887,-10.916 10.916,-10.916 6.029,0 10.916,4.887 10.916,10.916 C 10.916,-4.887 6.029,0 0,0" /></g><g
       transform="translate(721.1187,730.5994)"
       id="g3429"><path
         id="path3431"
         style="fill:#e42e25;fill-opacity:1;fill-rule:nonzero;stroke:none"
         d="m 0,0 c -1.132,-1.845 -2.202,-3.673 -3.211,-5.481 -1.327,-2.377 -4.336,-3.224 -6.694,-1.864 -10.272,5.925 -19.353,12.266 -27.202,18.716 -1.686,1.385 -1.891,3.886 -0.459,5.533 2.845,3.273 5.875,6.552 9.092,9.817 1.581,1.605 4.193,1.534 5.673,-0.164 C -16.911,19.802 -9.69,12.97 -1.182,6.395 0.785,4.876 1.299,2.118 0,0" /></g><g
       transform="translate(764.6041,730.5994)"
       id="g3433"><path
         id="path3435"
         style="fill:#e42e25;fill-opacity:1;fill-rule:nonzero;stroke:none"
         d="m 0,0 c 1.132,-1.845 2.202,-3.673 3.211,-5.481 1.327,-2.377 4.336,-3.224 6.694,-1.864 10.272,5.925 19.353,12.266 27.202,18.716 1.686,1.385 1.891,3.886 0.459,5.533 -2.845,3.273 -5.875,6.552 -9.092,9.817 -1.581,1.605 -4.193,1.534 -5.673,-0.164 C 16.911,19.802 9.69,12.97 1.182,6.395 -0.785,4.876 -1.299,2.118 0,0" /></g><g
       transform="translate(966.7311,769.8141)"
       id="g3437"><path
         id="path3439"
         style="fill:#171918;fill-opacity:1;fill-rule:nonzero;stroke:none"
         d="m 0,0 c -36.732,0 -66.509,-29.777 -66.509,-66.509 0,-36.732 29.777,-66.509 66.509,-66.509 36.732,0 66.509,29.777 66.509,66.509 C 66.509,-29.777 36.732,0 0,0" /></g><g
       transform="translate(1037.314,710.6951)"
       id="g3441"><path
         id="path3443"
         style="fill:#3e4649;fill-opacity:1;fill-rule:nonzero;stroke:none"
         d="M 0,0 C -3.696,35.72 -33.886,63.575 -70.583,63.575 -107.28,63.575 -137.469,35.72 -141.166,0 L 0,0 Z" /></g><g
       transform="translate(896.1483,695.9154)"
       id="g3445"><path
         id="path3447"
         style="fill:#e9e8ea;fill-opacity:1;fill-rule:nonzero;stroke:none"
         d="m 0,0 c 3.696,-35.72 33.886,-63.575 70.583,-63.575 36.697,0 66.887,27.855 70.583,63.575 L 0,0 Z" /></g><g
       transform="translate(966.7311,725.6659)"
       id="g3449"><path
         id="path3451"
         style="fill:#171918;fill-opacity:1;fill-rule:nonzero;stroke:none"
         d="m 0,0 c -12.349,0 -22.361,-10.011 -22.361,-22.361 0,-12.349 10.012,-22.36 22.361,-22.36 12.349,0 22.361,10.011 22.361,22.36 C 22.361,-10.011 12.349,0 0,0" /></g><g
       transform="translate(966.7311,720.7758)"
       id="g3453"><path
         id="path3455"
         style="fill:#f7f8f8;fill-opacity:1;fill-rule:nonzero;stroke:none"
         d="m 0,0 c -9.649,0 -17.47,-7.822 -17.47,-17.471 0,-9.648 7.821,-17.47 17.47,-17.47 9.649,0 17.471,7.822 17.471,17.47 C 17.471,-7.822 9.649,0 0,0" /></g><g
       transform="translate(966.7311,715.0908)"
       id="g3457"><path
         id="path3459"
         style="fill:#bbb6b6;fill-opacity:1;fill-rule:nonzero;stroke:none"
         d="m 0,0 c -6.509,0 -11.785,-5.277 -11.785,-11.786 0,-6.508 5.276,-11.785 11.785,-11.785 6.509,0 11.786,5.277 11.786,11.785 C 11.786,-5.277 6.509,0 0,0" /></g><g
       transform="translate(966.7311,714.2214)"
       id="g3461"><path
         id="path3463"
         style="fill:#f7f8f8;fill-opacity:1;fill-rule:nonzero;stroke:none"
         d="m 0,0 c -6.029,0 -10.916,-4.887 -10.916,-10.916 0,-6.029 4.887,-10.916 10.916,-10.916 6.029,0 10.916,4.887 10.916,10.916 C 10.916,-4.887 6.029,0 0,0" /></g><g
       transform="translate(958.7254,753.3318)"
       id="g3465"><path
         id="path3467"
         style="fill:#e42e25;fill-opacity:1;fill-rule:nonzero;stroke:none"
         d="m 0,0 11.701,0 c 2.377,0 4.31,-1.934 4.31,-4.311 0,-2.377 -1.933,-4.311 -4.31,-4.311 L 0,-8.622 0,0 Z m 0,-22.496 0,9.31 8.878,0 4.4,-9.31 5.048,0 -4.52,9.565 c 3.881,0.948 6.77,4.452 6.77,8.62 0,4.894 -3.981,8.875 -8.875,8.875 l -16.265,0 0,-2.282 0,-15.468 0,-9.31 4.564,0 z" /></g><g
       transform="matrix(2.9355427,0,0,2.7957503,-3377.113,-1292.2828)"
       id="g4256"><g
         id="g3469"
         transform="translate(1190.601,769.8141)"><path
           d="m 0,0 c -36.732,0 -66.509,-29.777 -66.509,-66.509 0,-36.732 29.777,-66.509 66.509,-66.509 36.732,0 66.509,29.777 66.509,66.509 C 66.509,-29.777 36.732,0 0,0"
           style="fill:#171918;fill-opacity:1;fill-rule:nonzero;stroke:none"
           id="path3471" /></g><g
         id="g3473"
         transform="translate(1261.1837,710.6951)"><path
           d="M 0,0 C -3.696,35.72 -33.886,63.575 -70.583,63.575 -107.28,63.575 -137.469,35.72 -141.166,0 L 0,0 Z"
           style="fill:#51a0d8;fill-opacity:1;fill-rule:nonzero;stroke:none"
           id="path3475" /></g><g
         id="g3477"
         transform="translate(1120.0181,695.9154)"><path
           d="m 0,0 c 3.696,-35.72 33.886,-63.575 70.583,-63.575 36.697,0 66.887,27.855 70.583,63.575 L 0,0 Z"
           style="fill:#e9e8ea;fill-opacity:1;fill-rule:nonzero;stroke:none"
           id="path3479" /></g><g
         id="g3481"
         transform="translate(1190.601,725.6659)"><path
           d="m 0,0 c -12.349,0 -22.361,-10.011 -22.361,-22.361 0,-12.349 10.012,-22.36 22.361,-22.36 12.349,0 22.361,10.011 22.361,22.36 C 22.361,-10.011 12.349,0 0,0"
           style="fill:#171918;fill-opacity:1;fill-rule:nonzero;stroke:none"
           id="path3483" /></g><g
         id="g3485"
         transform="translate(1190.601,720.7758)"><path
           d="m 0,0 c -9.649,0 -17.47,-7.822 -17.47,-17.471 0,-9.648 7.821,-17.47 17.47,-17.47 9.649,0 17.47,7.822 17.47,17.47 C 17.47,-7.822 9.649,0 0,0"
           style="fill:#f7f8f8;fill-opacity:1;fill-rule:nonzero;stroke:none"
           id="path3487" /></g><g
         id="g3489"
         transform="translate(1190.601,715.0908)"><path
           d="m 0,0 c -6.509,0 -11.786,-5.277 -11.786,-11.786 0,-6.508 5.277,-11.785 11.786,-11.785 6.509,0 11.786,5.277 11.786,11.785 C 11.786,-5.277 6.509,0 0,0"
           style="fill:#bbb6b6;fill-opacity:1;fill-rule:nonzero;stroke:none"
           id="path3491" /></g><g
         id="g3493"
         transform="translate(1190.601,714.2214)"><path
           d="m 0,0 c -6.029,0 -10.916,-4.887 -10.916,-10.916 0,-6.029 4.887,-10.916 10.916,-10.916 6.029,0 10.916,4.887 10.916,10.916 C 10.916,-4.887 6.029,0 0,0"
           style="fill:#f7f8f8;fill-opacity:1;fill-rule:nonzero;stroke:none"
           id="path3495" /></g><g
         id="g3497"
         transform="translate(1122.4854,723.2581)"><path
           d="m 0,0 c 2.433,-0.401 4.93,-0.613 7.476,-0.613 25.208,0 45.644,20.435 45.644,45.643 0,1.467 -0.073,2.916 -0.208,4.347 C 27.529,43.836 7.226,24.71 0,0"
           style="fill:#e42e25;fill-opacity:1;fill-rule:nonzero;stroke:none"
           id="path3499" /></g><g
         id="g3501"
         transform="translate(1205.8042,772.6356)"><path
           d="m 0,0 c -0.135,-1.431 -0.207,-2.881 -0.207,-4.347 0,-25.208 20.435,-45.643 45.643,-45.643 2.547,0 5.043,0.212 7.476,0.613 C 45.686,-24.667 25.384,-5.541 0,0"
           style="fill:#e42e25;fill-opacity:1;fill-rule:nonzero;stroke:none"
           id="path3503" /></g><g
         id="g3505"
         transform="translate(1178.7313,725.8081)"><path
           d="M 0,0 4.065,13.152 11.87,0.333 19.674,13.152 23.739,0 28.533,0 21.048,24.216 11.87,9.14 2.691,24.216 -4.794,0 0,0 Z"
           style="fill:#f7f8f8;fill-opacity:1;fill-rule:nonzero;stroke:none"
           id="path3507" /></g></g><g
       transform="translate(742.8614,343.2036)"
       id="g3509"><path
         id="path3511"
         style="fill:#171918;fill-opacity:1;fill-rule:nonzero;stroke:none"
         d="m 0,0 c -36.732,0 -66.509,-29.777 -66.509,-66.509 0,-36.732 29.777,-66.509 66.509,-66.509 36.732,0 66.509,29.777 66.509,66.509 C 66.509,-29.777 36.732,0 0,0" /></g><g
       transform="translate(813.4442,284.0846)"
       id="g3513"><path
         id="path3515"
         style="fill:#148cb2;fill-opacity:1;fill-rule:nonzero;stroke:none"
         d="M 0,0 C -3.696,35.72 -33.886,63.575 -70.583,63.575 -107.28,63.575 -137.47,35.72 -141.166,0 L 0,0 Z" /></g><g
       transform="translate(672.2786,269.3049)"
       id="g3517"><path
         id="path3519"
         style="fill:#e9e8ea;fill-opacity:1;fill-rule:nonzero;stroke:none"
         d="m 0,0 c 3.696,-35.72 33.886,-63.575 70.583,-63.575 36.697,0 66.887,27.855 70.583,63.575 L 0,0 Z" /></g><g
       transform="translate(787.5598,302.5261)"
       id="g3521"><path
         id="path3523"
         style="fill:#e42e25;fill-opacity:1;fill-rule:nonzero;stroke:none"
         d="m 0,0 -24.125,24.125 12.726,12.725 c -9.93,5.287 -21.265,8.283 -33.299,8.283 -12.035,0 -23.37,-2.996 -33.3,-8.283 L -65.272,24.125 -89.397,0 l 18.442,-18.441 52.514,0 L 0,0 Z" /></g><g
       transform="translate(742.8614,299.0553)"
       id="g3525"><path
         id="path3527"
         style="fill:#171918;fill-opacity:1;fill-rule:nonzero;stroke:none"
         d="m 0,0 c -12.349,0 -22.361,-10.011 -22.361,-22.361 0,-12.349 10.012,-22.36 22.361,-22.36 12.349,0 22.361,10.011 22.361,22.36 C 22.361,-10.011 12.349,0 0,0" /></g><g
       transform="translate(742.8614,294.1652)"
       id="g3529"><path
         id="path3531"
         style="fill:#f7f8f8;fill-opacity:1;fill-rule:nonzero;stroke:none"
         d="m 0,0 c -9.649,0 -17.47,-7.822 -17.47,-17.47 0,-9.649 7.821,-17.471 17.47,-17.471 9.649,0 17.471,7.822 17.471,17.471 C 17.471,-7.822 9.649,0 0,0" /></g><g
       transform="translate(742.8614,288.4803)"
       id="g3533"><path
         id="path3535"
         style="fill:#bbb6b6;fill-opacity:1;fill-rule:nonzero;stroke:none"
         d="m 0,0 c -6.509,0 -11.786,-5.277 -11.786,-11.786 0,-6.508 5.277,-11.785 11.786,-11.785 6.509,0 11.786,5.277 11.786,11.785 C 11.786,-5.277 6.509,0 0,0" /></g><g
       transform="translate(742.8614,287.6108)"
       id="g3537"><path
         id="path3539"
         style="fill:#f7f8f8;fill-opacity:1;fill-rule:nonzero;stroke:none"
         d="m 0,0 c -6.029,0 -10.916,-4.887 -10.916,-10.916 0,-6.029 4.887,-10.916 10.916,-10.916 6.029,0 10.916,4.887 10.916,10.916 C 10.916,-4.887 6.029,0 0,0" /></g><path
       id="path3541"
       style="fill:#f6978b;fill-opacity:1;fill-rule:nonzero;stroke:none"
       d="m 730.999,302.218 4.89,0 0,18.908 -4.89,0 0,-18.908 z" /><path
       id="path3543"
       style="fill:#f6978b;fill-opacity:1;fill-rule:nonzero;stroke:none"
       d="m 740.416,302.218 4.89,0 0,18.908 -4.89,0 0,-18.908 z" /><path
       id="path3545"
       style="fill:#f6978b;fill-opacity:1;fill-rule:nonzero;stroke:none"
       d="m 749.834,302.218 4.89,0 0,18.908 -4.89,0 0,-18.908 z" /><g
       id="g4238"><g
         id="g3547"
         transform="translate(742.8614,555.9444)"><path
           d="m 0,0 c -36.732,0 -66.509,-29.777 -66.509,-66.509 0,-36.732 29.777,-66.509 66.509,-66.509 36.732,0 66.509,29.777 66.509,66.509 C 66.509,-29.777 36.732,0 0,0"
           style="fill:#171918;fill-opacity:1;fill-rule:nonzero;stroke:none"
           id="path3549" /></g><g
         id="g3551"
         transform="translate(813.4442,496.8254)"><path
           d="M 0,0 C -3.696,35.72 -33.886,63.575 -70.583,63.575 -107.28,63.575 -137.47,35.72 -141.166,0 L 0,0 Z"
           style="fill:#309646;fill-opacity:1;fill-rule:nonzero;stroke:none"
           id="path3553" /></g><g
         id="g3555"
         transform="translate(672.2786,482.0456)"><path
           d="m 0,0 c 3.696,-35.72 33.886,-63.575 70.583,-63.575 36.697,0 66.887,27.855 70.583,63.575 L 0,0 Z"
           style="fill:#e9e8ea;fill-opacity:1;fill-rule:nonzero;stroke:none"
           id="path3557" /></g><g
         id="g3559"
         transform="translate(742.8614,511.7961)"><path
           d="m 0,0 c -12.349,0 -22.361,-10.011 -22.361,-22.361 0,-12.349 10.012,-22.36 22.361,-22.36 12.349,0 22.361,10.011 22.361,22.36 C 22.361,-10.011 12.349,0 0,0"
           style="fill:#171918;fill-opacity:1;fill-rule:nonzero;stroke:none"
           id="path3561" /></g><g
         id="g3563"
         transform="translate(742.8614,506.906)"><path
           d="m 0,0 c -9.649,0 -17.47,-7.822 -17.47,-17.47 0,-9.649 7.821,-17.471 17.47,-17.471 9.649,0 17.471,7.822 17.471,17.471 C 17.471,-7.822 9.649,0 0,0"
           style="fill:#f7f8f8;fill-opacity:1;fill-rule:nonzero;stroke:none"
           id="path3565" /></g><g
         id="g3567"
         transform="translate(742.8614,501.221)"><path
           d="m 0,0 c -6.509,0 -11.786,-5.277 -11.786,-11.786 0,-6.508 5.277,-11.785 11.786,-11.785 6.509,0 11.786,5.277 11.786,11.785 C 11.786,-5.277 6.509,0 0,0"
           style="fill:#bbb6b6;fill-opacity:1;fill-rule:nonzero;stroke:none"
           id="path3569" /></g><g
         id="g3571"
         transform="translate(742.8614,500.3516)"><path
           d="m 0,0 c -6.029,0 -10.916,-4.887 -10.916,-10.916 0,-6.029 4.887,-10.916 10.916,-10.916 6.029,0 10.916,4.887 10.916,10.916 C 10.916,-4.887 6.029,0 0,0"
           style="fill:#f7f8f8;fill-opacity:1;fill-rule:nonzero;stroke:none"
           id="path3573" /></g><g
         id="g3575"
         transform="translate(733.478,523.4411)"><path
           d="m 0,0 2.943,0.257 c 0.139,-1.179 0.463,-2.147 0.973,-2.902 0.509,-0.756 1.3,-1.367 2.372,-1.834 1.072,-0.466 2.278,-0.699 3.618,-0.699 1.19,0 2.241,0.177 3.152,0.531 0.911,0.353 1.589,0.838 2.034,1.455 0.445,0.616 0.668,1.289 0.668,2.018 0,0.74 -0.215,1.386 -0.644,1.938 C 14.687,1.316 13.98,1.779 12.994,2.155 12.361,2.401 10.962,2.784 8.796,3.305 6.631,3.825 5.114,4.315 4.245,4.776 3.12,5.365 2.281,6.097 1.729,6.971 1.176,7.845 0.901,8.823 0.901,9.906 c 0,1.19 0.337,2.302 1.013,3.337 0.675,1.034 1.661,1.82 2.959,2.356 1.297,0.536 2.739,0.804 4.325,0.804 1.748,0 3.289,-0.282 4.624,-0.844 1.334,-0.563 2.361,-1.392 3.079,-2.485 0.718,-1.094 1.104,-2.332 1.158,-3.715 L 15.068,9.134 c -0.161,1.49 -0.705,2.616 -1.632,3.377 -0.928,0.761 -2.297,1.142 -4.109,1.142 -1.887,0 -3.262,-0.346 -4.125,-1.037 C 4.339,11.924 3.908,11.09 3.908,10.115 3.908,9.268 4.213,8.571 4.824,8.024 5.425,7.478 6.992,6.917 9.528,6.344 12.063,5.77 13.803,5.269 14.746,4.84 c 1.373,-0.632 2.386,-1.434 3.04,-2.404 0.654,-0.97 0.981,-2.088 0.981,-3.353 0,-1.254 -0.36,-2.436 -1.078,-3.546 -0.718,-1.109 -1.75,-1.972 -3.095,-2.589 -1.346,-0.616 -2.86,-0.924 -4.543,-0.924 -2.134,0 -3.922,0.311 -5.363,0.932 C 3.246,-6.422 2.115,-5.486 1.294,-4.237 0.474,-2.989 0.043,-1.576 0,0"
           style="fill:#231f20;fill-opacity:1;fill-rule:nonzero;stroke:none"
           id="path3577" /></g></g><g
       transform="translate(966.7311,555.9444)"
       id="g3579"><path
         id="path3581"
         style="fill:#171918;fill-opacity:1;fill-rule:nonzero;stroke:none"
         d="m 0,0 c -36.732,0 -66.509,-29.777 -66.509,-66.509 0,-36.732 29.777,-66.509 66.509,-66.509 36.732,0 66.509,29.777 66.509,66.509 C 66.509,-29.777 36.732,0 0,0" /></g><g
       transform="translate(1037.314,496.8254)"
       id="g3583"><path
         id="path3585"
         style="fill:#e42e25;fill-opacity:1;fill-rule:nonzero;stroke:none"
         d="M 0,0 C -3.696,35.72 -33.886,63.575 -70.583,63.575 -107.28,63.575 -137.469,35.72 -141.166,0 L 0,0 Z" /></g><g
       transform="translate(896.1483,482.0456)"
       id="g3587"><path
         id="path3589"
         style="fill:#e9e8ea;fill-opacity:1;fill-rule:nonzero;stroke:none"
         d="m 0,0 c 3.696,-35.72 33.886,-63.575 70.583,-63.575 36.697,0 66.887,27.855 70.583,63.575 L 0,0 Z" /></g><g
       transform="translate(966.7311,511.7961)"
       id="g3591"><path
         id="path3593"
         style="fill:#171918;fill-opacity:1;fill-rule:nonzero;stroke:none"
         d="m 0,0 c -12.349,0 -22.361,-10.011 -22.361,-22.361 0,-12.349 10.012,-22.36 22.361,-22.36 12.349,0 22.361,10.011 22.361,22.36 C 22.361,-10.011 12.349,0 0,0" /></g><g
       transform="translate(966.7311,506.906)"
       id="g3595"><path
         id="path3597"
         style="fill:#f7f8f8;fill-opacity:1;fill-rule:nonzero;stroke:none"
         d="m 0,0 c -9.649,0 -17.47,-7.822 -17.47,-17.47 0,-9.649 7.821,-17.471 17.47,-17.471 9.649,0 17.471,7.822 17.471,17.471 C 17.471,-7.822 9.649,0 0,0" /></g><g
       transform="translate(966.7311,501.221)"
       id="g3599"><path
         id="path3601"
         style="fill:#bbb6b6;fill-opacity:1;fill-rule:nonzero;stroke:none"
         d="m 0,0 c -6.509,0 -11.785,-5.277 -11.785,-11.786 0,-6.508 5.276,-11.785 11.785,-11.785 6.509,0 11.786,5.277 11.786,11.785 C 11.786,-5.277 6.509,0 0,0" /></g><g
       transform="translate(966.7311,500.3516)"
       id="g3603"><path
         id="path3605"
         style="fill:#f7f8f8;fill-opacity:1;fill-rule:nonzero;stroke:none"
         d="m 0,0 c -6.029,0 -10.916,-4.887 -10.916,-10.916 0,-6.029 4.887,-10.916 10.916,-10.916 6.029,0 10.916,4.887 10.916,10.916 C 10.916,-4.887 6.029,0 0,0" /></g><g
       transform="translate(969.8653,536.1939)"
       id="g3607"><path
         id="path3609"
         style="fill:#f7ec2d;fill-opacity:1;fill-rule:nonzero;stroke:none"
         d="m 0,0 16.938,7.621 -5.029,11.177 -27.28,-12.275 5.029,-11.177 -16.938,-7.621 5.029,-11.177 27.28,12.275 L 0,0 Z" /></g><g
       transform="translate(925.1255,482.0456)"
       id="g3611"><path
         id="path3613"
         style="fill:#f7ec2d;fill-opacity:1;fill-rule:nonzero;stroke:none"
         d="m 0,0 -28.977,0 c 1.541,-14.895 7.692,-28.42 16.998,-39.131 C -5.321,-27.423 -1.098,-14.15 0,0" /></g><g
       transform="translate(896.1484,496.8254)"
       id="g3615"><path
         id="path3617"
         style="fill:#f7ec2d;fill-opacity:1;fill-rule:nonzero;stroke:none"
         d="M 0,0 28.977,0 C 27.88,14.15 23.657,27.423 16.999,39.131 7.693,28.42 1.541,14.895 0,0" /></g><g
       transform="translate(1008.3369,496.8254)"
       id="g3619"><path
         id="path3621"
         style="fill:#f7ec2d;fill-opacity:1;fill-rule:nonzero;stroke:none"
         d="M 0,0 28.977,0 C 27.436,14.895 21.285,28.42 11.979,39.131 5.321,27.423 1.097,14.15 0,0" /></g><g
       transform="translate(1037.314,482.0456)"
       id="g3623"><path
         id="path3625"
         style="fill:#f7ec2d;fill-opacity:1;fill-rule:nonzero;stroke:none"
         d="m 0,0 -28.977,0 c 1.097,-14.15 5.32,-27.423 11.978,-39.131 C -7.693,-28.42 -1.541,-14.895 0,0" /></g><g
       transform="matrix(2.9355427,0,0,2.7957503,-3723.6855,-168.96074)"
       id="g4297"><g
         id="g3627"
         transform="translate(1190.601,343.2036)"><path
           d="m 0,0 c -36.732,0 -66.509,-29.777 -66.509,-66.509 0,-36.732 29.777,-66.509 66.509,-66.509 36.732,0 66.509,29.777 66.509,66.509 C 66.509,-29.777 36.732,0 0,0"
           style="fill:#171918;fill-opacity:1;fill-rule:nonzero;stroke:none"
           id="path3629" /></g><g
         id="g3631"
         transform="translate(1261.1837,284.0846)"><path
           d="M 0,0 C -3.696,35.72 -33.886,63.575 -70.583,63.575 -107.28,63.575 -137.469,35.72 -141.166,0 L 0,0 Z"
           style="fill:#4167b0;fill-opacity:1;fill-rule:nonzero;stroke:none"
           id="path3633" /></g><g
         id="g3635"
         transform="translate(1120.0181,269.3049)"><path
           d="m 0,0 c 3.696,-35.72 33.886,-63.575 70.583,-63.575 36.697,0 66.887,27.855 70.583,63.575 L 0,0 Z"
           style="fill:#4167b0;fill-opacity:1;fill-rule:nonzero;stroke:none"
           id="path3637" /></g><g
         id="g3639"
         transform="translate(1223.4218,255.2814)"><path
           d="m 0,0 14.023,14.024 -93.688,0 L -65.642,0 -88.378,-22.736 c 3.358,-4.221 7.186,-8.051 11.406,-11.409 l 22.738,22.738 21.413,-21.414 21.414,21.414 22.737,-22.738 c 4.22,3.358 8.048,7.188 11.406,11.409 L 0,0 Z"
           style="fill:#f7ec2d;fill-opacity:1;fill-rule:nonzero;stroke:none"
           id="path3641" /></g><g
         id="g3643"
         transform="translate(1234.752,332.2531)"><path
           d="M 0,0 -22.738,-22.738 -44.151,-1.324 -65.564,-22.738 -88.302,0 c -4.22,-3.358 -8.048,-7.188 -11.406,-11.409 l 22.736,-22.736 -14.023,-14.023 93.688,0 -14.023,14.023 22.736,22.736 C 8.048,-7.188 4.22,-3.358 0,0"
           style="fill:#f7ec2d;fill-opacity:1;fill-rule:nonzero;stroke:none"
           id="path3645" /></g><g
         id="g3647"
         transform="translate(1190.601,299.0553)"><path
           d="m 0,0 c -12.349,0 -22.361,-10.011 -22.361,-22.361 0,-12.349 10.012,-22.36 22.361,-22.36 12.349,0 22.361,10.011 22.361,22.36 C 22.361,-10.011 12.349,0 0,0"
           style="fill:#171918;fill-opacity:1;fill-rule:nonzero;stroke:none"
           id="path3649" /></g><g
         id="g3651"
         transform="translate(1190.601,294.1652)"><path
           d="m 0,0 c -9.649,0 -17.47,-7.822 -17.47,-17.47 0,-9.649 7.821,-17.471 17.47,-17.471 9.649,0 17.47,7.822 17.47,17.471 C 17.47,-7.822 9.649,0 0,0"
           style="fill:#f7f8f8;fill-opacity:1;fill-rule:nonzero;stroke:none"
           id="path3653" /></g><g
         id="g3655"
         transform="translate(1190.601,288.4803)"><path
           d="m 0,0 c -6.509,0 -11.786,-5.277 -11.786,-11.786 0,-6.508 5.277,-11.785 11.786,-11.785 6.509,0 11.786,5.277 11.786,11.785 C 11.786,-5.277 6.509,0 0,0"
           style="fill:#bbb6b6;fill-opacity:1;fill-rule:nonzero;stroke:none"
           id="path3657" /></g><g
         id="g3659"
         transform="translate(1190.601,287.6108)"><path
           d="m 0,0 c -6.029,0 -10.916,-4.887 -10.916,-10.916 0,-6.029 4.887,-10.916 10.916,-10.916 6.029,0 10.916,4.887 10.916,10.916 C 10.916,-4.887 6.029,0 0,0"
           style="fill:#f7f8f8;fill-opacity:1;fill-rule:nonzero;stroke:none"
           id="path3661" /></g></g><g
       transform="translate(1190.601,555.9444)"
       id="g3663"><path
         id="path3665"
         style="fill:#171918;fill-opacity:1;fill-rule:nonzero;stroke:none"
         d="m 0,0 c -36.732,0 -66.509,-29.777 -66.509,-66.509 0,-36.732 29.777,-66.509 66.509,-66.509 36.732,0 66.509,29.777 66.509,66.509 C 66.509,-29.777 36.732,0 0,0" /></g><g
       transform="translate(1261.1837,496.8254)"
       id="g3667"><path
         id="path3669"
         style="fill:#f47721;fill-opacity:1;fill-rule:nonzero;stroke:none"
         d="M 0,0 C -3.696,35.72 -33.886,63.575 -70.583,63.575 -107.28,63.575 -137.469,35.72 -141.166,0 L 0,0 Z" /></g><g
       transform="translate(1120.0181,482.0456)"
       id="g3671"><path
         id="path3673"
         style="fill:#e9e8ea;fill-opacity:1;fill-rule:nonzero;stroke:none"
         d="m 0,0 c 3.696,-35.72 33.886,-63.575 70.583,-63.575 36.697,0 66.887,27.855 70.583,63.575 L 0,0 Z" /></g><g
       transform="translate(1190.601,511.7961)"
       id="g3675"><path
         id="path3677"
         style="fill:#171918;fill-opacity:1;fill-rule:nonzero;stroke:none"
         d="m 0,0 c -12.349,0 -22.361,-10.011 -22.361,-22.361 0,-12.349 10.012,-22.36 22.361,-22.36 12.349,0 22.361,10.011 22.361,22.36 C 22.361,-10.011 12.349,0 0,0" /></g><g
       transform="translate(1190.601,506.906)"
       id="g3679"><path
         id="path3681"
         style="fill:#f7f8f8;fill-opacity:1;fill-rule:nonzero;stroke:none"
         d="m 0,0 c -9.649,0 -17.47,-7.822 -17.47,-17.47 0,-9.649 7.821,-17.471 17.47,-17.471 9.649,0 17.47,7.822 17.47,17.471 C 17.47,-7.822 9.649,0 0,0" /></g><g
       transform="translate(1190.601,501.221)"
       id="g3683"><path
         id="path3685"
         style="fill:#bbb6b6;fill-opacity:1;fill-rule:nonzero;stroke:none"
         d="m 0,0 c -6.509,0 -11.786,-5.277 -11.786,-11.786 0,-6.508 5.277,-11.785 11.786,-11.785 6.509,0 11.786,5.277 11.786,11.785 C 11.786,-5.277 6.509,0 0,0" /></g><g
       transform="translate(1190.601,500.3516)"
       id="g3687"><path
         id="path3689"
         style="fill:#f7f8f8;fill-opacity:1;fill-rule:nonzero;stroke:none"
         d="m 0,0 c -6.029,0 -10.916,-4.887 -10.916,-10.916 0,-6.029 4.887,-10.916 10.916,-10.916 6.029,0 10.916,4.887 10.916,10.916 C 10.916,-4.887 6.029,0 0,0" /></g><g
       transform="translate(1190.601,537.6284)"
       id="g3691"><path
         id="path3693"
         style="fill:#f7ec2d;fill-opacity:1;fill-rule:nonzero;stroke:none"
         d="m 0,0 c -3.388,0 -6.134,-2.746 -6.134,-6.134 0,-3.388 2.746,-6.134 6.134,-6.134 3.388,0 6.134,2.746 6.134,6.134 C 6.134,-2.746 3.388,0 0,0" /></g><g
       transform="translate(1182.5311,535.7244)"
       id="g3695"><path
         id="path3697"
         style="fill:#f7ec2d;fill-opacity:1;fill-rule:nonzero;stroke:none"
         d="m 0,0 c 1.527,2.901 4.57,4.885 8.07,4.885 3.499,0 6.543,-1.984 8.07,-4.885 l 3.715,0 C 18.117,4.829 13.491,8.292 8.07,8.292 2.649,8.292 -1.977,4.829 -3.716,0 L 0,0 Z" /></g><g
       transform="translate(1198.6708,527.2641)"
       id="g3699"><path
         id="path3701"
         style="fill:#f7ec2d;fill-opacity:1;fill-rule:nonzero;stroke:none"
         d="m 0,0 c -1.527,-2.901 -4.57,-4.885 -8.07,-4.885 -3.499,0 -6.543,1.984 -8.07,4.885 l -3.715,0 c 1.738,-4.829 6.364,-8.292 11.785,-8.292 5.421,0 10.047,3.463 11.786,8.292 L 0,0 Z" /></g><g
       transform="matrix(2.9355511,0,0,2.7957601,-2629.2303,-576.31895)"
       id="g4336"><g
         id="g3703"
         transform="translate(966.7311,343.2036)"><path
           d="m 0,0 c -36.732,0 -66.509,-29.777 -66.509,-66.509 0,-36.732 29.777,-66.509 66.509,-66.509 36.732,0 66.509,29.777 66.509,66.509 C 66.509,-29.777 36.732,0 0,0"
           style="fill:#f7ec2d;fill-opacity:1;fill-rule:nonzero;stroke:none"
           id="path3705" /></g><g
         id="g3707"
         transform="translate(966.7311,299.0553)"><path
           d="m 0,0 c -12.349,0 -22.361,-10.011 -22.361,-22.361 0,-12.349 10.012,-22.36 22.361,-22.36 12.349,0 22.361,10.011 22.361,22.36 C 22.361,-10.011 12.349,0 0,0"
           style="fill:#f7ec2d;fill-opacity:1;fill-rule:nonzero;stroke:none"
           id="path3709" /></g><g
         id="g3711"
         transform="translate(966.7311,295.4011)"><path
           d="m 0,0 c -10.331,0 -18.706,-8.375 -18.706,-18.706 0,-10.332 8.375,-18.707 18.706,-18.707 10.331,0 18.706,8.375 18.706,18.707 C 18.706,-8.375 10.331,0 0,0"
           style="fill:#77712e;fill-opacity:1;fill-rule:nonzero;stroke:none"
           id="path3713" /></g><g
         id="g3715"
         transform="translate(966.7311,294.1652)"><path
           d="m 0,0 c -9.649,0 -17.47,-7.822 -17.47,-17.47 0,-9.649 7.821,-17.471 17.47,-17.471 9.649,0 17.471,7.822 17.471,17.471 C 17.471,-7.822 9.649,0 0,0"
           style="fill:#d5c829;fill-opacity:1;fill-rule:nonzero;stroke:none"
           id="path3717" /></g><g
         id="g3719"
         transform="translate(966.7311,288.4803)"><path
           d="m 0,0 c -6.509,0 -11.785,-5.277 -11.785,-11.786 0,-6.508 5.276,-11.785 11.785,-11.785 6.509,0 11.786,5.277 11.786,11.785 C 11.786,-5.277 6.509,0 0,0"
           style="fill:#77712e;fill-opacity:1;fill-rule:nonzero;stroke:none"
           id="path3721" /></g><g
         id="g3723"
         transform="translate(966.7311,287.6108)"><path
           d="m 0,0 c -6.029,0 -10.916,-4.887 -10.916,-10.916 0,-6.029 4.887,-10.916 10.916,-10.916 6.029,0 10.916,4.887 10.916,10.916 C 10.916,-4.887 6.029,0 0,0"
           style="fill:#f3eb92;fill-opacity:1;fill-rule:nonzero;stroke:none"
           id="path3725" /></g><g
         id="g3727"
         transform="translate(966.7311,299.0553)"><path
           d="m 0,0 c 9.76,0 18.057,-6.253 21.109,-14.971 l 49.474,0 C 66.887,20.749 36.697,48.604 0,48.604 c -36.697,0 -66.887,-27.855 -70.583,-63.575 l 49.474,0 C -18.057,-6.253 -9.759,0 0,0"
           style="fill:#3e4649;fill-opacity:1;fill-rule:nonzero;stroke:none"
           id="path3729" /></g><g
         id="g3731"
         transform="translate(990.7266,288.4316)"><path
           d="M 0,0 C -4.437,9.068 -13.722,14.971 -23.995,14.971 -34.269,14.971 -43.554,9.068 -47.991,0 l -45.997,0 c -0.239,-1.435 -0.439,-2.884 -0.59,-4.347 l 49.474,0 c 3.051,8.718 11.349,14.971 21.109,14.971 9.759,0 18.057,-6.253 21.108,-14.971 l 49.474,0 C 46.436,-2.884 46.236,-1.435 45.997,0 L 0,0 Z"
           style="fill:#6d7173;fill-opacity:1;fill-rule:nonzero;stroke:none"
           id="path3733" /></g><g
         id="g3735"
         transform="translate(966.7311,254.3341)"><path
           d="m 0,0 c -9.759,0 -18.057,6.253 -21.109,14.971 l -49.474,0 c 3.696,-35.72 33.886,-63.575 70.583,-63.575 36.697,0 66.887,27.855 70.583,63.575 l -49.474,0 C 18.057,6.253 9.76,0 0,0"
           style="fill:#3e4649;fill-opacity:1;fill-rule:nonzero;stroke:none"
           id="path3737" /></g><g
         id="g3739"
         transform="translate(942.7357,264.9579)"><path
           d="m 0,0 c 4.437,-9.068 13.722,-14.971 23.995,-14.971 10.274,0 19.559,5.903 23.996,14.971 l 45.997,0 c 0.239,1.435 0.439,2.884 0.59,4.347 l -49.474,0 c -3.051,-8.718 -11.349,-14.971 -21.109,-14.971 -9.759,0 -18.057,6.253 -21.109,14.971 l -49.473,0 C -46.436,2.884 -46.236,1.435 -45.997,0 L 0,0 Z"
           style="fill:#6d7173;fill-opacity:1;fill-rule:nonzero;stroke:none"
           id="path3741" /></g><g
         id="g3743"
         transform="translate(917.428,327.7286)"><path
           d="m 0,0 c -3.541,-3.422 -6.727,-7.208 -9.497,-11.3 38.999,-4.108 78.601,-4.108 117.6,0 -2.77,4.092 -5.955,7.878 -9.497,11.3 C 65.856,-2.884 32.75,-2.884 0,0"
           style="fill:#f7ec2d;fill-opacity:1;fill-rule:nonzero;stroke:none"
           id="path3745" /></g><g
         id="g3747"
         transform="translate(915.6388,325.9432)"><path
           d="m 0,0 c -2.322,-2.409 -4.473,-4.984 -6.439,-7.701 38.166,-3.932 76.897,-3.932 115.062,0 -1.965,2.717 -4.116,5.292 -6.438,7.701 C 68.255,-3.098 33.93,-3.098 0,0"
           style="fill:#e42e25;fill-opacity:1;fill-rule:nonzero;stroke:none"
           id="path3749" /></g></g><g
       id="g4146"
       transform="matrix(0.99560794,0,0,0.94819754,-546.62861,204.05524)"><g
         transform="translate(346.9302,686.1019)"
         id="g4148"><path
           id="path4150"
           style="fill:#171918;fill-opacity:1;fill-rule:nonzero;stroke:none"
           d="m 0,0 c -108.304,0 -196.102,-87.798 -196.102,-196.102 0,-108.304 87.798,-196.102 196.102,-196.102 108.304,0 196.102,87.798 196.102,196.102 C 196.102,-87.798 108.304,0 0,0" /></g><g
         transform="translate(555.0441,511.7891)"
         id="g4152"><path
           id="path4154"
           style="fill:#e42e25;fill-opacity:1;fill-rule:nonzero;stroke:none"
           d="M 0,0 C -10.898,105.32 -99.913,187.45 -208.114,187.45 -316.315,187.45 -405.33,105.32 -416.228,0 L 0,0 Z" /></g><g
         transform="translate(138.8162,468.2109)"
         id="g4156"><path
           id="path4158"
           style="fill:#e9e8ea;fill-opacity:1;fill-rule:nonzero;stroke:none"
           d="m 0,0 c 10.898,-105.32 99.913,-187.45 208.114,-187.45 108.201,0 197.216,82.13 208.114,187.45 L 0,0 Z" /></g><g
         transform="translate(346.9302,555.9304)"
         id="g4160"><path
           id="path4162"
           style="fill:#171918;fill-opacity:1;fill-rule:nonzero;stroke:none"
           d="m 0,0 c -36.412,0 -65.93,-29.518 -65.93,-65.93 0,-36.413 29.518,-65.931 65.93,-65.931 36.412,0 65.93,29.518 65.93,65.931 C 65.93,-29.518 36.412,0 0,0" /></g><g
         transform="translate(346.9302,541.5118)"
         id="g4164"><path
           id="path4166"
           style="fill:#f7f8f8;fill-opacity:1;fill-rule:nonzero;stroke:none"
           d="m 0,0 c -28.449,0 -51.512,-23.063 -51.512,-51.512 0,-28.449 23.063,-51.512 51.512,-51.512 28.449,0 51.512,23.063 51.512,51.512 C 51.512,-23.063 28.449,0 0,0" /></g><g
         transform="translate(346.9302,524.7496)"
         id="g4168"><path
           id="path4170"
           style="fill:#bbb6b6;fill-opacity:1;fill-rule:nonzero;stroke:none"
           d="m 0,0 c -19.192,0 -34.75,-15.558 -34.75,-34.75 0,-19.191 15.558,-34.749 34.75,-34.749 19.192,0 34.75,15.558 34.75,34.749 C 34.75,-15.558 19.192,0 0,0" /></g><g
         transform="translate(346.9302,522.1862)"
         id="g4172"><path
           id="path4174"
           style="fill:#f7f8f8;fill-opacity:1;fill-rule:nonzero;stroke:none"
           d="m 0,0 c -17.776,0 -32.186,-14.41 -32.186,-32.186 0,-17.776 14.41,-32.186 32.186,-32.186 17.776,0 32.186,14.41 32.186,32.186 C 32.186,-14.41 17.776,0 0,0" /></g></g></g></svg>